<svg width="25" height="25" viewBox="0 0 32 32" fill="none" xmlns="http://www.w3.org/2000/svg">
<rect width="32" height="31.6484" rx="12" fill="#406DDF"/>
<path d="M14.3171 21.8495V19.8111C14.3171 19.2907 14.7532 18.8689 15.2912 18.8689L17.2577 18.8689C17.5161 18.8689 17.7638 18.9681 17.9465 19.1448C18.1292 19.3215 18.2318 19.5612 18.2318 19.8111V21.8495C18.2302 22.0659 18.3179 22.2739 18.4755 22.4274C18.633 22.581 18.8475 22.6673 19.0711 22.6673H20.4128C21.0394 22.6689 21.6409 22.4292 22.0845 22.0012C22.5282 21.5732 22.7775 20.992 22.7775 20.3859V14.5786C22.7775 14.089 22.5532 13.6245 22.1649 13.3104L17.6008 9.78456C16.8069 9.16636 15.6693 9.18632 14.8991 9.83197L10.4392 13.3104C10.0326 13.6153 9.78954 14.0811 9.77753 14.5786V20.3799C9.77753 21.6432 10.8363 22.6673 12.1423 22.6673H13.4533C13.9178 22.6673 14.2954 22.3048 14.2987 21.8555L14.3171 21.8495Z" fill="white"/>
</svg>
