<svg width="21" height="21" viewBox="0 0 21 21" fill="none" xmlns="http://www.w3.org/2000/svg">
<path fill-rule="evenodd" clip-rule="evenodd" d="M19.6875 14.3815C19.6875 17.5551 17.4597 19.6875 14.1444 19.6875L6.41812 19.6875C3.10275 19.6875 0.874999 17.5551 0.874999 14.3815L0.875 6.181C0.875 3.00737 3.10275 0.874999 6.41813 0.874999L14.1444 0.875C17.4597 0.875 19.6875 3.00738 19.6875 6.181L19.6875 14.3815ZM18.375 14.3815L18.375 6.181C18.375 3.7555 16.7151 2.1875 14.1444 2.1875L6.41812 2.1875C3.84738 2.1875 2.1875 3.7555 2.1875 6.181L2.1875 14.3815C2.1875 16.8079 3.84737 18.375 6.41812 18.375L14.1444 18.375C16.7151 18.375 18.375 16.8079 18.375 14.3815ZM12.5103 6.23096C12.5103 6.59321 12.2163 6.88721 11.8541 6.88721L5.85156 6.88721C5.48931 6.88721 5.19531 6.59321 5.19531 6.23096C5.19531 5.86871 5.48931 5.57471 5.85156 5.57471L11.8541 5.57471C12.2163 5.57471 12.5103 5.86871 12.5103 6.23096ZM15.3838 10.3146C15.3838 10.6768 15.0898 10.9708 14.7276 10.9708L5.85244 10.9708C5.49019 10.9708 5.19619 10.6768 5.19619 10.3146C5.19619 9.95234 5.49019 9.65834 5.85244 9.65834L14.7276 9.65834C15.0898 9.65834 15.3838 9.95234 15.3838 10.3146ZM9.33844 14.3311C9.33844 14.6933 9.04444 14.9874 8.68219 14.9874L5.85244 14.9874C5.49019 14.9874 5.19619 14.6933 5.19619 14.3311C5.19619 13.9688 5.49019 13.6748 5.85244 13.6748L8.68219 13.6748C9.04444 13.6748 9.33844 13.9688 9.33844 14.3311Z" fill="#C4C4C4"/>
</svg>
