<svg width="21" height="21" viewBox="0 0 21 21" fill="none" xmlns="http://www.w3.org/2000/svg">
<path fill-rule="evenodd" clip-rule="evenodd" d="M12.0024 13.3798C13.0559 13.3798 13.9134 14.2312 13.9134 15.2777V17.9692C13.9134 18.1941 14.0936 18.3743 14.3246 18.3796H15.9924C17.3066 18.3796 18.375 17.3243 18.375 16.0276V8.3941C18.3689 7.94784 18.1563 7.52784 17.7914 7.24872L12.0225 2.64797C11.2481 2.03459 10.1649 2.03459 9.38788 2.64972L3.65837 7.24697C3.2795 7.53485 3.06687 7.95485 3.0625 8.40897V16.0276C3.0625 17.3243 4.13087 18.3796 5.44512 18.3796H7.12862C7.36575 18.3796 7.55825 18.1915 7.55825 17.9605C7.55825 17.9097 7.56437 17.859 7.57487 17.8108V15.2777C7.57487 14.2373 8.42713 13.3868 9.47275 13.3798H12.0024ZM15.9924 19.6921H14.3089C13.3446 19.6693 12.6009 18.9125 12.6009 17.9692V15.2777C12.6009 14.9548 12.3323 14.6923 12.0024 14.6923H9.47713C9.15425 14.6941 8.88738 14.9575 8.88738 15.2777V17.9605C8.88738 18.0261 8.87863 18.0891 8.86025 18.1486C8.76575 19.0148 8.0255 19.6921 7.12862 19.6921H5.44512C3.40725 19.6921 1.75 18.048 1.75 16.0276V8.40285C1.75875 7.5331 2.1595 6.73684 2.85163 6.21272L8.56975 1.62334C9.82887 0.625844 11.5833 0.625844 12.8398 1.62159L18.599 6.21534C19.2754 6.73072 19.6761 7.52522 19.6875 8.38447V16.0276C19.6875 18.048 18.0303 19.6921 15.9924 19.6921Z" fill="#C4C4C4"/>
</svg>
