<svg width="24" height="24" viewBox="0 0 24 24" fill="none" xmlns="http://www.w3.org/2000/svg">
<path fill-rule="evenodd" clip-rule="evenodd" d="M4 3.75C3.86193 3.75 3.75 3.86193 3.75 4V20C3.75 20.1381 3.86192 20.25 4 20.25H20C20.1381 20.25 20.25 20.1381 20.25 20V13C20.25 12.5858 20.5858 12.25 21 12.25C21.4142 12.25 21.75 12.5858 21.75 13V20C21.75 20.9665 20.9665 21.75 20 21.75H4C3.03351 21.75 2.25 20.9665 2.25 20V4C2.25 3.0335 3.0335 2.25 4 2.25H11C11.4142 2.25 11.75 2.58579 11.75 3C11.75 3.41421 11.4142 3.75 11 3.75H4Z" fill="#406DDF"/>
<path fill-rule="evenodd" clip-rule="evenodd" d="M20.5 8.21569L11.189 17.5312C11.0484 17.6719 10.8576 17.751 10.6586 17.751H7C6.58579 17.751 6.25 17.4152 6.25 17.001V13.3609C6.25 13.1621 6.32889 12.9715 6.46935 12.8309L15.5 3.7877C16.5 2.78781 18.7814 2.78231 20 4.00094C21 5.00091 21.5 7.00098 20.5 8.21569ZM18.6445 5.35934C17.9285 4.64304 16.7672 4.64326 16.0515 5.35984L7.75 13.6713V16.251H10.3478L18.6445 7.95067C19.3598 7.23501 19.3598 6.07501 18.6445 5.35934Z" fill="#406DDF"/>
<path d="M15.3749 8.5C14.5464 7.67157 14.5 6.5 14.5 6.5L13.1251 8C13.1251 8 13 9 14 10C15 11 16.1251 11 16.1251 11L17.5 9.5C17.5 9.5 16.2033 9.32843 15.3749 8.5Z" fill="#406DDF"/>
</svg>
