<svg width="570" height="188" viewBox="0 0 570 188" fill="none" xmlns="http://www.w3.org/2000/svg">
<path d="M3.81641 3.74268V10H2.52197V5.24658L0.824707 5.69238V4.67188L3.67139 3.74268H3.81641ZM11.8472 6.3208V7.42188C11.8472 7.87663 11.7899 8.2723 11.6753 8.60889C11.5643 8.94189 11.4049 9.21761 11.1973 9.43604C10.9932 9.65446 10.7461 9.81738 10.4561 9.9248C10.1696 10.0322 9.85091 10.0859 9.5 10.0859C9.14909 10.0859 8.82861 10.0322 8.53857 9.9248C8.25212 9.81738 8.00505 9.65446 7.79736 9.43604C7.58968 9.21761 7.42855 8.94189 7.31396 8.60889C7.19938 8.2723 7.14209 7.87663 7.14209 7.42188V6.3208C7.14209 5.86605 7.19759 5.47217 7.30859 5.13916C7.42318 4.80615 7.58431 4.53044 7.79199 4.31201C7.99967 4.09001 8.24674 3.92529 8.5332 3.81787C8.81966 3.71045 9.13835 3.65674 9.48926 3.65674C9.84017 3.65674 10.1606 3.71045 10.4507 3.81787C10.7407 3.92529 10.9896 4.09001 11.1973 4.31201C11.4049 4.53044 11.5643 4.80615 11.6753 5.13916C11.7899 5.47217 11.8472 5.86605 11.8472 6.3208ZM10.5474 7.52393V6.20801C10.5474 5.94661 10.5241 5.72103 10.4775 5.53125C10.431 5.33789 10.363 5.17855 10.2734 5.05322C10.1839 4.9279 10.0729 4.83659 9.94043 4.7793C9.81152 4.71842 9.66113 4.68799 9.48926 4.68799C9.32454 4.68799 9.17594 4.71842 9.04346 4.7793C8.91455 4.83659 8.80534 4.9279 8.71582 5.05322C8.6263 5.17855 8.55827 5.33789 8.51172 5.53125C8.46517 5.72103 8.44189 5.94661 8.44189 6.20801V7.52393C8.44189 7.7889 8.46517 8.01807 8.51172 8.21143C8.55827 8.40479 8.6263 8.56413 8.71582 8.68945C8.80892 8.81478 8.92171 8.90788 9.0542 8.96875C9.18669 9.02962 9.33529 9.06006 9.5 9.06006C9.66829 9.06006 9.81689 9.02962 9.9458 8.96875C10.0783 8.90788 10.1893 8.81478 10.2788 8.68945C10.3683 8.56413 10.4346 8.40479 10.4775 8.21143C10.5241 8.01807 10.5474 7.7889 10.5474 7.52393ZM18.5083 6.3208V7.42188C18.5083 7.87663 18.451 8.2723 18.3364 8.60889C18.2254 8.94189 18.0661 9.21761 17.8584 9.43604C17.6543 9.65446 17.4072 9.81738 17.1172 9.9248C16.8307 10.0322 16.512 10.0859 16.1611 10.0859C15.8102 10.0859 15.4897 10.0322 15.1997 9.9248C14.9132 9.81738 14.6662 9.65446 14.4585 9.43604C14.2508 9.21761 14.0897 8.94189 13.9751 8.60889C13.8605 8.2723 13.8032 7.87663 13.8032 7.42188V6.3208C13.8032 5.86605 13.8587 5.47217 13.9697 5.13916C14.0843 4.80615 14.2454 4.53044 14.4531 4.31201C14.6608 4.09001 14.9079 3.92529 15.1943 3.81787C15.4808 3.71045 15.7995 3.65674 16.1504 3.65674C16.5013 3.65674 16.8218 3.71045 17.1118 3.81787C17.4019 3.92529 17.6507 4.09001 17.8584 4.31201C18.0661 4.53044 18.2254 4.80615 18.3364 5.13916C18.451 5.47217 18.5083 5.86605 18.5083 6.3208ZM17.2085 7.52393V6.20801C17.2085 5.94661 17.1852 5.72103 17.1387 5.53125C17.0921 5.33789 17.0241 5.17855 16.9346 5.05322C16.8451 4.9279 16.734 4.83659 16.6016 4.7793C16.4727 4.71842 16.3223 4.68799 16.1504 4.68799C15.9857 4.68799 15.8371 4.71842 15.7046 4.7793C15.5757 4.83659 15.4665 4.9279 15.377 5.05322C15.2874 5.17855 15.2194 5.33789 15.1729 5.53125C15.1263 5.72103 15.103 5.94661 15.103 6.20801V7.52393C15.103 7.7889 15.1263 8.01807 15.1729 8.21143C15.2194 8.40479 15.2874 8.56413 15.377 8.68945C15.4701 8.81478 15.5828 8.90788 15.7153 8.96875C15.8478 9.02962 15.9964 9.06006 16.1611 9.06006C16.3294 9.06006 16.478 9.02962 16.6069 8.96875C16.7394 8.90788 16.8504 8.81478 16.9399 8.68945C17.0295 8.56413 17.0957 8.40479 17.1387 8.21143C17.1852 8.01807 17.2085 7.7889 17.2085 7.52393Z" fill="#474747" fill-opacity="0.5"/>
<path d="M36 6.5L24 6.5" stroke="#303030"/>
<path d="M11.5703 37.9927V38.707L8.81494 44.25H7.45068L10.2061 39.0239H6.63965V37.9927H11.5703ZM14.7456 41.4248L13.7144 41.1777L14.1118 37.9927H17.9253V39.04H15.186L14.998 40.3828C15.0947 40.3398 15.2415 40.2897 15.4385 40.2324C15.639 40.1751 15.861 40.1465 16.1045 40.1465C16.5521 40.1465 16.9352 40.2288 17.2539 40.3936C17.5726 40.5547 17.8161 40.7892 17.9844 41.0972C18.1562 41.4015 18.2422 41.7703 18.2422 42.2036C18.2422 42.5796 18.158 42.9305 17.9897 43.2563C17.8215 43.5786 17.5636 43.84 17.2163 44.0405C16.8726 44.2375 16.4339 44.3359 15.9004 44.3359C15.5029 44.3359 15.1287 44.2661 14.7778 44.1265C14.4269 43.9868 14.1387 43.7827 13.9131 43.5142C13.6911 43.2456 13.5693 42.918 13.5479 42.5312H14.8262C14.8548 42.7998 14.9658 42.9967 15.1592 43.1221C15.3525 43.2474 15.5996 43.3101 15.9004 43.3101C16.151 43.3101 16.3534 43.2617 16.5073 43.165C16.6613 43.0648 16.7723 42.9305 16.8403 42.7622C16.9119 42.5903 16.9478 42.397 16.9478 42.1821C16.9478 41.9673 16.903 41.7775 16.8135 41.6128C16.724 41.4445 16.5915 41.3138 16.416 41.2207C16.2406 41.1276 16.0275 41.0811 15.7769 41.0811C15.4904 41.0811 15.2738 41.1187 15.127 41.1938C14.9837 41.2655 14.8566 41.3424 14.7456 41.4248Z" fill="#474747" fill-opacity="0.5"/>
<path d="M36 40.75H24" stroke="#303030"/>
<path d="M8.08447 75.6748L7.05322 75.4277L7.45068 72.2427H11.2642V73.29H8.5249L8.33691 74.6328C8.43359 74.5898 8.5804 74.5397 8.77734 74.4824C8.97786 74.4251 9.19987 74.3965 9.44336 74.3965C9.89095 74.3965 10.2741 74.4788 10.5928 74.6436C10.9115 74.8047 11.1549 75.0392 11.3232 75.3472C11.4951 75.6515 11.5811 76.0203 11.5811 76.4536C11.5811 76.8296 11.4969 77.1805 11.3286 77.5063C11.1603 77.8286 10.9025 78.09 10.5552 78.2905C10.2114 78.4875 9.77279 78.5859 9.23926 78.5859C8.8418 78.5859 8.46761 78.5161 8.1167 78.3765C7.76579 78.2368 7.47754 78.0327 7.25195 77.7642C7.02995 77.4956 6.9082 77.168 6.88672 76.7812H8.16504C8.19368 77.0498 8.30469 77.2467 8.49805 77.3721C8.69141 77.4974 8.93848 77.5601 9.23926 77.5601C9.48991 77.5601 9.69222 77.5117 9.84619 77.415C10.0002 77.3148 10.1112 77.1805 10.1792 77.0122C10.2508 76.8403 10.2866 76.647 10.2866 76.4321C10.2866 76.2173 10.2419 76.0275 10.1523 75.8628C10.0628 75.6945 9.93034 75.5638 9.75488 75.4707C9.57943 75.3776 9.36637 75.3311 9.11572 75.3311C8.82926 75.3311 8.61263 75.3687 8.46582 75.4438C8.32259 75.5155 8.19548 75.5924 8.08447 75.6748ZM18.1777 74.8208V75.9219C18.1777 76.3766 18.1204 76.7723 18.0059 77.1089C17.8949 77.4419 17.7355 77.7176 17.5278 77.936C17.3237 78.1545 17.0767 78.3174 16.7866 78.4248C16.5002 78.5322 16.1815 78.5859 15.8306 78.5859C15.4797 78.5859 15.1592 78.5322 14.8691 78.4248C14.5827 78.3174 14.3356 78.1545 14.1279 77.936C13.9202 77.7176 13.7591 77.4419 13.6445 77.1089C13.5299 76.7723 13.4727 76.3766 13.4727 75.9219V74.8208C13.4727 74.366 13.5282 73.9722 13.6392 73.6392C13.7537 73.3062 13.9149 73.0304 14.1226 72.812C14.3302 72.59 14.5773 72.4253 14.8638 72.3179C15.1502 72.2104 15.4689 72.1567 15.8198 72.1567C16.1707 72.1567 16.4912 72.2104 16.7812 72.3179C17.0713 72.4253 17.3201 72.59 17.5278 72.812C17.7355 73.0304 17.8949 73.3062 18.0059 73.6392C18.1204 73.9722 18.1777 74.366 18.1777 74.8208ZM16.8779 76.0239V74.708C16.8779 74.4466 16.8547 74.221 16.8081 74.0312C16.7616 73.8379 16.6935 73.6785 16.604 73.5532C16.5145 73.4279 16.4035 73.3366 16.271 73.2793C16.1421 73.2184 15.9917 73.188 15.8198 73.188C15.6551 73.188 15.5065 73.2184 15.374 73.2793C15.2451 73.3366 15.1359 73.4279 15.0464 73.5532C14.9569 73.6785 14.8888 73.8379 14.8423 74.0312C14.7957 74.221 14.7725 74.4466 14.7725 74.708V76.0239C14.7725 76.2889 14.7957 76.5181 14.8423 76.7114C14.8888 76.9048 14.9569 77.0641 15.0464 77.1895C15.1395 77.3148 15.2523 77.4079 15.3848 77.4688C15.5173 77.5296 15.6659 77.5601 15.8306 77.5601C15.9989 77.5601 16.1475 77.5296 16.2764 77.4688C16.4089 77.4079 16.5199 77.3148 16.6094 77.1895C16.6989 77.0641 16.7651 76.9048 16.8081 76.7114C16.8547 76.5181 16.8779 76.2889 16.8779 76.0239Z" fill="#474747" fill-opacity="0.5"/>
<path d="M36 75H24" stroke="#303030"/>
<path d="M11.6133 111.724V112.75H6.83838V111.875L9.12109 109.737C9.35742 109.518 9.54362 109.323 9.67969 109.151C9.81934 108.976 9.9196 108.818 9.98047 108.679C10.0413 108.535 10.0718 108.407 10.0718 108.292C10.0718 108.041 9.98942 107.835 9.82471 107.674C9.65999 107.513 9.42367 107.433 9.11572 107.433C8.86149 107.433 8.65023 107.479 8.48193 107.572C8.31722 107.662 8.19548 107.785 8.1167 107.943C8.03792 108.1 7.99854 108.279 7.99854 108.48H6.69873C6.69873 108.1 6.79362 107.753 6.9834 107.438C7.17318 107.123 7.44531 106.872 7.7998 106.686C8.15788 106.5 8.58577 106.407 9.0835 106.407C9.56331 106.407 9.97331 106.482 10.3135 106.632C10.6572 106.783 10.9186 106.999 11.0977 107.282C11.2767 107.562 11.3662 107.893 11.3662 108.276C11.3662 108.487 11.3304 108.688 11.2588 108.877C11.1908 109.067 11.0905 109.252 10.958 109.431C10.8255 109.61 10.6644 109.792 10.4746 109.979C10.2848 110.165 10.07 110.363 9.83008 110.575L8.49805 111.724H11.6133ZM14.7456 109.925L13.7144 109.678L14.1118 106.493H17.9253V107.54H15.186L14.998 108.883C15.0947 108.84 15.2415 108.79 15.4385 108.732C15.639 108.675 15.861 108.646 16.1045 108.646C16.5521 108.646 16.9352 108.729 17.2539 108.894C17.5726 109.055 17.8161 109.289 17.9844 109.597C18.1562 109.902 18.2422 110.27 18.2422 110.704C18.2422 111.08 18.158 111.431 17.9897 111.756C17.8215 112.079 17.5636 112.34 17.2163 112.541C16.8726 112.737 16.4339 112.836 15.9004 112.836C15.5029 112.836 15.1287 112.766 14.7778 112.626C14.4269 112.487 14.1387 112.283 13.9131 112.014C13.6911 111.746 13.5693 111.418 13.5479 111.031H14.8262C14.8548 111.3 14.9658 111.497 15.1592 111.622C15.3525 111.747 15.5996 111.81 15.9004 111.81C16.151 111.81 16.3534 111.762 16.5073 111.665C16.6613 111.565 16.7723 111.431 16.8403 111.262C16.9119 111.09 16.9478 110.897 16.9478 110.682C16.9478 110.467 16.903 110.278 16.8135 110.113C16.724 109.944 16.5915 109.814 16.416 109.721C16.2406 109.628 16.0275 109.581 15.7769 109.581C15.4904 109.581 15.2738 109.619 15.127 109.694C14.9837 109.765 14.8566 109.842 14.7456 109.925Z" fill="#474747" fill-opacity="0.5"/>
<path d="M36 109.25H24" stroke="#303030"/>
<path d="M18.3472 143.321V144.422C18.3472 144.877 18.2899 145.272 18.1753 145.609C18.0643 145.942 17.9049 146.218 17.6973 146.436C17.4932 146.654 17.2461 146.817 16.9561 146.925C16.6696 147.032 16.3509 147.086 16 147.086C15.6491 147.086 15.3286 147.032 15.0386 146.925C14.7521 146.817 14.505 146.654 14.2974 146.436C14.0897 146.218 13.9285 145.942 13.814 145.609C13.6994 145.272 13.6421 144.877 13.6421 144.422V143.321C13.6421 142.866 13.6976 142.472 13.8086 142.139C13.9232 141.806 14.0843 141.53 14.292 141.312C14.4997 141.09 14.7467 140.925 15.0332 140.818C15.3197 140.71 15.6383 140.657 15.9893 140.657C16.3402 140.657 16.6606 140.71 16.9507 140.818C17.2407 140.925 17.4896 141.09 17.6973 141.312C17.9049 141.53 18.0643 141.806 18.1753 142.139C18.2899 142.472 18.3472 142.866 18.3472 143.321ZM17.0474 144.524V143.208C17.0474 142.947 17.0241 142.721 16.9775 142.531C16.931 142.338 16.863 142.179 16.7734 142.053C16.6839 141.928 16.5729 141.837 16.4404 141.779C16.3115 141.718 16.1611 141.688 15.9893 141.688C15.8245 141.688 15.6759 141.718 15.5435 141.779C15.4146 141.837 15.3053 141.928 15.2158 142.053C15.1263 142.179 15.0583 142.338 15.0117 142.531C14.9652 142.721 14.9419 142.947 14.9419 143.208V144.524C14.9419 144.789 14.9652 145.018 15.0117 145.211C15.0583 145.405 15.1263 145.564 15.2158 145.689C15.3089 145.815 15.4217 145.908 15.5542 145.969C15.6867 146.03 15.8353 146.06 16 146.06C16.1683 146.06 16.3169 146.03 16.4458 145.969C16.5783 145.908 16.6893 145.815 16.7788 145.689C16.8683 145.564 16.9346 145.405 16.9775 145.211C17.0241 145.018 17.0474 144.789 17.0474 144.524Z" fill="#474747" fill-opacity="0.5"/>
<path d="M36 143.5H24" stroke="#303030"/>
<path d="M36 0V160" stroke="#303030"/>
<path d="M46 76.1905L211.65 20L390.84 140L560 62.0762" stroke="#6E8BFF" stroke-width="3" stroke-linecap="round"/>
<path d="M36 160H570" stroke="#303030"/>
<path d="M39.5 160V170" stroke="#303030"/>
<path d="M39.0811 185H37.6201L37.6309 183.974H39.0811C39.4928 183.974 39.8294 183.899 40.0908 183.749C40.3522 183.595 40.5438 183.373 40.6655 183.083C40.7909 182.792 40.8535 182.44 40.8535 182.024V181.713C40.8535 181.401 40.8177 181.126 40.7461 180.886C40.6781 180.642 40.5724 180.438 40.4292 180.273C40.286 180.109 40.1034 179.985 39.8813 179.903C39.6629 179.817 39.4033 179.774 39.1025 179.774H37.5933V178.743H39.1025C39.5501 178.743 39.9601 178.814 40.3325 178.958C40.7085 179.101 41.0308 179.305 41.2993 179.57C41.5715 179.831 41.7809 180.145 41.9277 180.51C42.0781 180.875 42.1533 181.28 42.1533 181.724V182.024C42.1533 182.615 42.0226 183.134 41.7612 183.582C41.5034 184.03 41.1436 184.379 40.6816 184.629C40.2233 184.876 39.6898 185 39.0811 185ZM38.3506 178.743V185H37.0562V178.743H38.3506Z" fill="#303030"/>
<path d="M214.834 160V170" stroke="#303030"/>
<path d="M215.484 178.743V185H214.184V178.743H215.484Z" fill="#303030"/>
<path d="M389.666 160V170" stroke="#303030"/>
<path d="M390.923 183.362C390.923 183.244 390.901 183.138 390.858 183.045C390.819 182.952 390.749 182.868 390.649 182.792C390.552 182.714 390.418 182.64 390.246 182.572C390.078 182.504 389.865 182.44 389.607 182.379C389.235 182.289 388.905 182.189 388.619 182.078C388.336 181.964 388.098 181.831 387.904 181.681C387.711 181.53 387.564 181.353 387.464 181.149C387.367 180.945 387.319 180.707 387.319 180.435C387.319 180.173 387.376 179.935 387.491 179.72C387.605 179.502 387.768 179.314 387.979 179.156C388.191 178.995 388.441 178.872 388.731 178.786C389.021 178.7 389.34 178.657 389.688 178.657C390.192 178.657 390.631 178.739 391.003 178.904C391.376 179.069 391.664 179.296 391.868 179.586C392.076 179.872 392.18 180.205 392.18 180.585H390.885C390.885 180.406 390.839 180.245 390.746 180.102C390.656 179.958 390.524 179.844 390.348 179.758C390.173 179.672 389.952 179.629 389.688 179.629C389.433 179.629 389.224 179.667 389.059 179.742C388.894 179.813 388.771 179.908 388.688 180.026C388.61 180.141 388.57 180.266 388.57 180.402C388.57 180.51 388.594 180.606 388.64 180.692C388.69 180.778 388.769 180.857 388.876 180.929C388.984 181 389.124 181.068 389.295 181.133C389.467 181.197 389.677 181.26 389.924 181.321C390.293 181.407 390.618 181.509 390.901 181.627C391.184 181.745 391.421 181.885 391.61 182.046C391.8 182.203 391.942 182.39 392.035 182.604C392.131 182.816 392.18 183.057 392.18 183.33C392.18 183.605 392.122 183.852 392.008 184.071C391.893 184.286 391.729 184.468 391.514 184.619C391.302 184.769 391.048 184.885 390.751 184.968C390.454 185.047 390.123 185.086 389.757 185.086C389.435 185.086 389.115 185.047 388.796 184.968C388.481 184.889 388.196 184.767 387.942 184.603C387.688 184.438 387.484 184.228 387.33 183.974C387.179 183.716 387.104 183.414 387.104 183.066H388.404C388.404 183.253 388.436 183.414 388.5 183.55C388.569 183.682 388.663 183.792 388.785 183.877C388.91 183.96 389.059 184.021 389.231 184.06C389.403 184.099 389.593 184.119 389.8 184.119C390.062 184.119 390.275 184.085 390.439 184.017C390.608 183.945 390.729 183.852 390.805 183.738C390.883 183.623 390.923 183.498 390.923 183.362Z" fill="#303030"/>
<path d="M566.5 160V170" stroke="#303030"/>
<path d="M567.961 182.916H569.261C569.229 183.342 569.103 183.718 568.885 184.044C568.67 184.37 568.369 184.626 567.982 184.812C567.596 184.995 567.128 185.086 566.581 185.086C566.154 185.086 565.771 185.016 565.431 184.876C565.095 184.737 564.806 184.538 564.566 184.28C564.33 184.019 564.147 183.704 564.019 183.335C563.893 182.963 563.831 182.545 563.831 182.083V181.665C563.831 181.203 563.895 180.787 564.024 180.418C564.153 180.046 564.339 179.729 564.583 179.468C564.826 179.203 565.116 179.002 565.453 178.866C565.793 178.727 566.174 178.657 566.597 178.657C567.152 178.657 567.619 178.752 567.999 178.941C568.378 179.128 568.674 179.387 568.885 179.72C569.096 180.053 569.223 180.435 569.266 180.864H567.972C567.95 180.632 567.891 180.427 567.794 180.252C567.698 180.073 567.553 179.933 567.359 179.833C567.166 179.733 566.912 179.683 566.597 179.683C566.353 179.683 566.14 179.726 565.958 179.812C565.775 179.894 565.621 180.019 565.496 180.188C565.374 180.356 565.281 180.563 565.216 180.811C565.155 181.054 565.125 181.337 565.125 181.659V182.083C565.125 182.399 565.152 182.68 565.206 182.927C565.263 183.17 565.351 183.376 565.469 183.544C565.587 183.713 565.737 183.842 565.92 183.931C566.106 184.017 566.326 184.06 566.581 184.06C566.885 184.06 567.134 184.019 567.327 183.937C567.521 183.851 567.669 183.722 567.773 183.55C567.877 183.378 567.939 183.167 567.961 182.916Z" fill="#303030"/>
</svg>
