<svg width="40" height="40" viewBox="0 0 40 40" fill="none" xmlns="http://www.w3.org/2000/svg">
<rect width="33" height="33" rx="16.5" fill="#0A66C2"/>
<g clip-path="url(#clip0_1917_17455)">
<path d="M6.875 9.44298C6.875 8.82359 7.09179 8.31262 7.52534 7.91004C7.95889 7.50744 8.52253 7.30615 9.21622 7.30615C9.89753 7.30615 10.4488 7.50434 10.8699 7.90075C11.3035 8.30953 11.5203 8.84218 11.5203 9.49872C11.5203 10.0933 11.3097 10.5888 10.8885 10.9852C10.455 11.394 9.88514 11.5984 9.17905 11.5984H9.16047C8.47916 11.5984 7.92793 11.394 7.50676 10.9852C7.08558 10.5764 6.875 10.0623 6.875 9.44298ZM7.11655 25.7014V13.2893H11.2416V25.7014H7.11655ZM13.527 25.7014H17.652V18.7707C17.652 18.3371 17.7016 18.0026 17.8007 17.7673C17.9741 17.3461 18.2373 16.99 18.5904 16.6989C18.9434 16.4078 19.3863 16.2622 19.9189 16.2622C21.3063 16.2622 22 17.1975 22 19.068V25.7014H26.125V18.5849C26.125 16.7515 25.6914 15.3611 24.8243 14.4134C23.9572 13.4658 22.8114 12.992 21.3868 12.992C19.7889 12.992 18.5439 13.6795 17.652 15.0545V15.0916H17.6334L17.652 15.0545V13.2893H13.527C13.5518 13.6857 13.5642 14.9182 13.5642 16.9869C13.5642 19.0556 13.5518 21.9604 13.527 25.7014Z" fill="white"/>
</g>
<defs>
<clipPath id="clip0_1917_17455">
<rect width="19.25" height="19.25" fill="white" transform="translate(6.875 6.875)"/>
</clipPath>
</defs>
</svg>
