<svg width="30" height="30" viewBox="0 0 30 30" fill="none" xmlns="http://www.w3.org/2000/svg">
<circle cx="15" cy="15" r="12.5" fill="#0077B5"/>
<path fill-rule="evenodd" clip-rule="evenodd" d="M11.7342 8.92743C11.7342 9.70561 11.1417 10.3354 10.2151 10.3354C9.3246 10.3354 8.73208 9.70561 8.75041 8.92743C8.73208 8.11143 9.32458 7.5 10.2328 7.5C11.1417 7.5 11.7165 8.11143 11.7342 8.92743ZM8.82491 20.5119V11.4476H11.6419V20.5113H8.82491V20.5119Z" fill="white"/>
<path fill-rule="evenodd" clip-rule="evenodd" d="M13.8997 14.3404C13.8997 13.2098 13.8624 12.2459 13.8252 11.4488H16.2721L16.4021 12.6906H16.4577C16.8285 12.1159 17.7551 11.2454 19.2564 11.2454C21.1096 11.2454 22.4998 12.4689 22.4998 15.1369V20.5131H19.6828V15.4899C19.6828 14.3215 19.2753 13.525 18.2559 13.525C17.4772 13.525 17.0141 14.0625 16.8291 14.5811C16.7546 14.7667 16.7179 15.0257 16.7179 15.2859V20.5131H13.9008V14.3404H13.8997Z" fill="white"/>
</svg>
