<svg width="48" height="8" viewBox="0 0 148 148" fill="none" xmlns="http://www.w3.org/2000/svg">
<path d="M92.1409 12.454C96.3368 12.4408 100.047 14.5334 102.273 17.7371L102.797 18.5606L110.581 18.5361C117.055 18.5157 122.374 23.5085 122.863 29.8612L122.9 30.7776L123.132 104.459C123.184 120.969 110.195 134.475 93.8599 135.224L92.5283 135.257L37.267 135.431C30.7931 135.452 25.4734 130.459 24.9845 124.106L24.948 123.19L24.6574 31.0875C24.637 24.6136 29.6299 19.2939 35.9826 18.8051L36.899 18.7685L44.682 18.744C46.6313 15.3496 50.1562 12.9735 54.262 12.6168L55.3 12.5703L92.1409 12.454ZM43.0778 31.0294L36.9377 31.0488L37.2282 123.151L92.4895 122.977C102.663 122.945 110.884 114.672 110.852 104.498L110.619 30.8164L104.479 30.8357C104.501 37.6179 99.0201 43.1334 92.2377 43.1548L55.3969 43.271C48.6146 43.2924 43.0992 37.8117 43.0778 31.0294ZM73.9529 86.1939C77.3441 86.1832 80.1017 88.9234 80.1124 92.3146C80.1223 95.4636 77.7603 98.0663 74.7076 98.4306L73.9916 98.4741L55.5712 98.5323C52.1801 98.543 49.4224 95.8027 49.4117 92.4115C49.4017 89.2625 51.7639 86.6598 54.8165 86.2955L55.5325 86.252L73.9529 86.1939ZM92.2958 61.5752C95.687 61.5645 98.4446 64.3048 98.4553 67.696C98.466 71.0872 95.7258 73.8448 92.3346 73.8555L55.4937 73.9717C52.1026 73.9824 49.3449 71.2421 49.3342 67.8509C49.3235 64.4597 52.0639 61.7021 55.455 61.6914L92.2958 61.5752ZM92.1796 24.7343L55.3388 24.8505L55.3581 30.9907L92.199 30.8745L92.1796 24.7343Z" fill="#EBC641"/>
</svg>
