<svg width="124" height="23" viewBox="0 0 124 23" fill="none" xmlns="http://www.w3.org/2000/svg">
<path d="M10.4702 5.56534C10.402 4.87784 10.1094 4.34375 9.59233 3.96307C9.07528 3.58239 8.37358 3.39204 7.48722 3.39204C6.88494 3.39204 6.37642 3.47727 5.96165 3.64773C5.54688 3.8125 5.22869 4.04261 5.0071 4.33807C4.79119 4.63352 4.68324 4.96875 4.68324 5.34375C4.67188 5.65625 4.73722 5.92898 4.87926 6.16193C5.02699 6.39489 5.22869 6.59659 5.48438 6.76705C5.74006 6.93182 6.03551 7.0767 6.37074 7.2017C6.70597 7.32102 7.06392 7.4233 7.4446 7.50852L9.01278 7.88352C9.77415 8.05398 10.473 8.28125 11.1094 8.56534C11.7457 8.84943 12.2969 9.19886 12.7628 9.61364C13.2287 10.0284 13.5895 10.517 13.8452 11.0795C14.1065 11.642 14.2401 12.2869 14.2457 13.0142C14.2401 14.0824 13.9673 15.0085 13.4276 15.7926C12.8935 16.571 12.1207 17.1761 11.1094 17.608C10.1037 18.0341 8.89063 18.2472 7.47017 18.2472C6.06108 18.2472 4.83381 18.0312 3.78835 17.5994C2.74858 17.1676 1.93608 16.5284 1.35085 15.6818C0.771307 14.8295 0.46733 13.7756 0.43892 12.5199H4.00994C4.04972 13.1051 4.21733 13.5937 4.51278 13.9858C4.81392 14.3722 5.21449 14.6648 5.71449 14.8636C6.22017 15.0568 6.79119 15.1534 7.42756 15.1534C8.05256 15.1534 8.59517 15.0625 9.0554 14.8807C9.52131 14.6989 9.8821 14.446 10.1378 14.1222C10.3935 13.7983 10.5213 13.4261 10.5213 13.0057C10.5213 12.6136 10.4048 12.2841 10.1719 12.017C9.9446 11.75 9.60938 11.5227 9.16619 11.3352C8.72869 11.1477 8.19176 10.9773 7.5554 10.8239L5.65483 10.3466C4.18324 9.98864 3.02131 9.42898 2.16903 8.66761C1.31676 7.90625 0.893466 6.88068 0.899148 5.59091C0.893466 4.53409 1.17472 3.6108 1.7429 2.82102C2.31676 2.03125 3.10369 1.41477 4.10369 0.971591C5.10369 0.528409 6.24006 0.306818 7.51278 0.306818C8.80824 0.306818 9.93892 0.528409 10.9048 0.971591C11.8764 1.41477 12.6321 2.03125 13.1719 2.82102C13.7116 3.6108 13.9901 4.52557 14.0071 5.56534H10.4702ZM20.2905 10.4318V18H16.6598V4.90909H20.12V7.21875H20.2734C20.5632 6.45739 21.049 5.85511 21.7308 5.41193C22.4126 4.96307 23.2393 4.73864 24.2109 4.73864C25.12 4.73864 25.9126 4.9375 26.5888 5.33523C27.2649 5.73295 27.7905 6.30114 28.1655 7.03977C28.5405 7.77273 28.728 8.64773 28.728 9.66477V18H25.0973V10.3125C25.103 9.51136 24.8984 8.88636 24.4837 8.4375C24.0689 7.98295 23.4979 7.75568 22.7706 7.75568C22.282 7.75568 21.8501 7.8608 21.4751 8.07102C21.1058 8.28125 20.8161 8.58807 20.6058 8.99148C20.4013 9.3892 20.2962 9.86932 20.2905 10.4318ZM35.3224 18.2472C34.4872 18.2472 33.7429 18.1023 33.0895 17.8125C32.4361 17.517 31.919 17.0824 31.5384 16.5085C31.1634 15.929 30.9759 15.2074 30.9759 14.3438C30.9759 13.6165 31.1094 13.0057 31.3764 12.5114C31.6435 12.017 32.0071 11.6193 32.4673 11.3182C32.9276 11.017 33.4503 10.7898 34.0355 10.6364C34.6264 10.483 35.2457 10.375 35.8935 10.3125C36.6548 10.233 37.2685 10.1591 37.7344 10.0909C38.2003 10.017 38.5384 9.90909 38.7486 9.76705C38.9588 9.625 39.0639 9.41477 39.0639 9.13636V9.08523C39.0639 8.54545 38.8935 8.12784 38.5526 7.83239C38.2173 7.53693 37.7401 7.3892 37.1207 7.3892C36.4673 7.3892 35.9474 7.53409 35.5611 7.82386C35.1747 8.10795 34.919 8.46591 34.794 8.89773L31.4361 8.625C31.6065 7.82955 31.9418 7.14205 32.4418 6.5625C32.9418 5.97727 33.5866 5.52841 34.3764 5.21591C35.1719 4.89773 36.0923 4.73864 37.1378 4.73864C37.8651 4.73864 38.5611 4.82386 39.2259 4.99432C39.8963 5.16477 40.4901 5.42898 41.0071 5.78693C41.5298 6.14489 41.9418 6.60511 42.2429 7.16761C42.544 7.72443 42.6946 8.39205 42.6946 9.17045V18H39.2514V16.1847H39.1491C38.9389 16.5938 38.6577 16.9545 38.3054 17.267C37.9531 17.5739 37.5298 17.8153 37.0355 17.9915C36.5412 18.1619 35.9702 18.2472 35.3224 18.2472ZM36.3622 15.7415C36.8963 15.7415 37.3679 15.6364 37.777 15.4261C38.1861 15.2102 38.5071 14.9205 38.7401 14.5568C38.973 14.1932 39.0895 13.7812 39.0895 13.321V11.9318C38.9759 12.0057 38.8196 12.0739 38.6207 12.1364C38.4276 12.1932 38.2088 12.2472 37.9645 12.2983C37.7202 12.3437 37.4759 12.3864 37.2315 12.4261C36.9872 12.4602 36.7656 12.4915 36.5668 12.5199C36.1406 12.5824 35.7685 12.6818 35.4503 12.8182C35.1321 12.9545 34.8849 13.1392 34.7088 13.3722C34.5327 13.5994 34.4446 13.8835 34.4446 14.2244C34.4446 14.7188 34.6236 15.0966 34.9815 15.358C35.3452 15.6136 35.8054 15.7415 36.3622 15.7415ZM45.5114 22.9091V4.90909H49.0909V7.10795H49.2528C49.4119 6.75568 49.642 6.39773 49.9432 6.03409C50.25 5.66477 50.6477 5.35795 51.1364 5.11364C51.6307 4.86364 52.2443 4.73864 52.9773 4.73864C53.9318 4.73864 54.8125 4.98864 55.6193 5.48864C56.4261 5.98295 57.071 6.73011 57.554 7.73011C58.0369 8.72443 58.2784 9.97159 58.2784 11.4716C58.2784 12.9318 58.0426 14.1648 57.571 15.1705C57.1051 16.1705 56.4688 16.929 55.6619 17.446C54.8608 17.9574 53.9631 18.2131 52.9688 18.2131C52.2642 18.2131 51.6648 18.0966 51.1705 17.8636C50.6818 17.6307 50.2812 17.3381 49.9688 16.9858C49.6562 16.6278 49.4176 16.267 49.2528 15.9034H49.142V22.9091H45.5114ZM49.0653 11.4545C49.0653 12.233 49.1733 12.9119 49.3892 13.4915C49.6051 14.071 49.9176 14.5227 50.3267 14.8466C50.7358 15.1648 51.233 15.3239 51.8182 15.3239C52.4091 15.3239 52.9091 15.1619 53.3182 14.8381C53.7273 14.5085 54.0369 14.054 54.2472 13.4744C54.4631 12.8892 54.571 12.2159 54.571 11.4545C54.571 10.6989 54.4659 10.0341 54.2557 9.46023C54.0455 8.88636 53.7358 8.4375 53.3267 8.11364C52.9176 7.78977 52.4148 7.62784 51.8182 7.62784C51.2273 7.62784 50.7273 7.78409 50.3182 8.09659C49.9148 8.40909 49.6051 8.85227 49.3892 9.42614C49.1733 10 49.0653 10.6761 49.0653 11.4545ZM84.666 1.584C84.066 2.04 83.622 2.472 83.334 2.88C83.046 3.264 82.782 3.78 82.542 4.428L78.006 18H74.91L71.85 7.884L68.826 18H65.694L61.086 4.428C60.846 3.756 60.582 3.24 60.294 2.88C60.03 2.496 59.598 2.064 58.998 1.584L59.286 1.188H65.838L66.054 1.836L65.55 1.98C65.19 2.1 64.926 2.256 64.758 2.448C64.614 2.616 64.542 2.856 64.542 3.168C64.542 3.408 64.626 3.792 64.794 4.32L68.394 15.048L71.166 5.688L70.77 4.428C70.53 3.756 70.266 3.24 69.978 2.88C69.714 2.496 69.282 2.064 68.682 1.584L68.97 1.188H75.522L75.774 1.836L75.234 1.98C74.85 2.076 74.586 2.22 74.442 2.412C74.298 2.58 74.226 2.832 74.226 3.168C74.226 3.408 74.31 3.792 74.478 4.32L77.646 15.084L81.21 4.392C81.378 3.864 81.462 3.468 81.462 3.204C81.462 2.916 81.378 2.688 81.21 2.52C81.066 2.328 80.814 2.184 80.454 2.088L79.806 1.836L80.022 1.188H84.378L84.666 1.584ZM85.3202 12.204C85.3202 10.308 85.8602 8.808 86.9402 7.704C88.0442 6.6 89.5322 6.048 91.4042 6.048C93.2762 6.048 94.7642 6.612 95.8682 7.74C96.9722 8.844 97.5242 10.332 97.5242 12.204C97.5242 14.076 96.9722 15.564 95.8682 16.668C94.7642 17.772 93.2762 18.324 91.4042 18.324C89.5322 18.324 88.0442 17.772 86.9402 16.668C85.8602 15.564 85.3202 14.076 85.3202 12.204ZM93.8882 12.276C93.8882 10.668 93.6602 9.36 93.2042 8.352C92.7482 7.32 92.1722 6.804 91.4762 6.804C90.7082 6.804 90.0842 7.308 89.6042 8.316C89.1242 9.3 88.8842 10.596 88.8842 12.204C88.8842 13.836 89.1002 15.132 89.5322 16.092C89.9882 17.052 90.5882 17.532 91.3322 17.532C92.0762 17.532 92.6882 17.052 93.1682 16.092C93.6482 15.108 93.8882 13.836 93.8882 12.276ZM107.02 6.048C107.788 6.048 108.412 6.276 108.892 6.732C109.372 7.164 109.612 7.728 109.612 8.424C109.612 9.072 109.42 9.6 109.036 10.008C108.652 10.392 108.148 10.584 107.524 10.584C107.044 10.584 106.6 10.488 106.192 10.296C106.624 9.936 106.84 9.396 106.84 8.676C106.84 8.34 106.768 8.076 106.624 7.884C106.48 7.692 106.288 7.596 106.048 7.596C105.472 7.596 104.992 8.184 104.608 9.36C104.224 10.512 104.032 11.952 104.032 13.68C104.032 14.568 104.08 15.276 104.176 15.804C104.296 16.332 104.488 16.824 104.752 17.28L105.04 17.64L104.752 18H99.5317L99.3158 17.388L99.8198 17.28C100.204 17.184 100.456 17.04 100.576 16.848C100.696 16.632 100.756 16.224 100.756 15.624V8.604C100.756 8.148 100.6 7.92 100.288 7.92H99.1718L99.0278 7.524C99.4838 7.116 100.048 6.78 100.72 6.516C101.416 6.252 102.1 6.12 102.772 6.12C103.084 6.12 103.336 6.192 103.528 6.336C103.72 6.48 103.816 6.672 103.816 6.912V9.54H103.924C104.428 7.212 105.46 6.048 107.02 6.048ZM123.99 16.92C123.15 17.856 122.106 18.324 120.858 18.324C120.09 18.324 119.478 18.156 119.022 17.82C118.59 17.484 118.254 16.92 118.014 16.128L116.898 12.96C116.754 12.552 116.562 12.24 116.322 12.024C116.106 11.808 115.806 11.652 115.422 11.556V14.256C115.422 15 115.47 15.588 115.566 16.02C115.686 16.452 115.878 16.872 116.142 17.28L116.43 17.64L116.142 18H110.922L110.706 17.388L111.21 17.28C111.594 17.184 111.846 17.04 111.966 16.848C112.086 16.632 112.146 16.224 112.146 15.624V2.628C112.146 2.292 111.99 2.124 111.678 2.124H110.562L110.418 1.764C110.874 1.332 111.462 0.995999 112.182 0.755999C112.926 0.491999 113.658 0.36 114.378 0.36C114.69 0.36 114.942 0.431999 115.134 0.575999C115.326 0.695999 115.422 0.875999 115.422 1.116V10.872L117.582 9.288C118.086 8.928 118.434 8.64 118.626 8.424C118.818 8.208 118.914 7.98 118.914 7.74C118.914 7.404 118.77 7.116 118.482 6.876L118.194 6.66L118.482 6.3H122.838L123.054 6.912C122.454 7.056 121.782 7.392 121.038 7.92L116.79 11.016C117.846 11.136 118.662 11.388 119.238 11.772C119.814 12.156 120.234 12.708 120.498 13.428L121.506 16.308C121.674 16.836 122.01 17.1 122.514 17.1C122.874 17.1 123.27 16.92 123.702 16.56L123.99 16.92Z" fill="#373733"/>
</svg>
