<svg width="35" height="30" viewBox="0 0 35 30" fill="none" xmlns="http://www.w3.org/2000/svg">
<rect x="1" y="5.3999" width="17" height="17" rx="2" transform="rotate(-15 1 5.3999)" fill="#DCD6E3" stroke="#6D508D" stroke-width="2"/>
<circle cx="7.12332" cy="8.93545" r="2" transform="rotate(-15 7.12332 8.93545)" fill="#F9F9F9"/>
<circle cx="13.885" cy="7.12369" r="2" transform="rotate(-15 13.885 7.12369)" fill="#F9F9F9"/>
<circle cx="15.6966" cy="13.8852" r="2" transform="rotate(-15 15.6966 13.8852)" fill="#6D508D"/>
<circle cx="8.93582" cy="15.6969" r="2" transform="rotate(-15 8.93582 15.6969)" fill="#F9F9F9"/>
<rect x="15.7539" y="1.52051" width="20.5601" height="20.5601" rx="3.75" transform="rotate(26.686 15.7539 1.52051)" fill="#F9F9F9"/>
<rect x="16.5449" y="3.9104" width="17" height="17" rx="2" transform="rotate(26.686 16.5449 3.9104)" fill="#DCD6E3" stroke="#6D508D" stroke-width="2"/>
<circle cx="18.7667" cy="10.6234" r="2" transform="rotate(26.686 18.7667 10.6234)" fill="#F9F9F9"/>
<circle cx="25.0216" cy="13.767" r="2" transform="rotate(26.686 25.0216 13.767)" fill="#F9F9F9"/>
<circle cx="21.877" cy="20.0213" r="2" transform="rotate(26.686 21.877 20.0213)" fill="#F9F9F9"/>
<circle cx="15.6231" cy="16.8778" r="2" transform="rotate(26.686 15.6231 16.8778)" fill="#F9F9F9"/>
</svg>
