<svg width="25" height="25" viewBox="0 0 34 35" fill="none" xmlns="http://www.w3.org/2000/svg">
<g filter="url(#filter0_d_1372_5841)">
<rect x="1" width="32" height="32" rx="12" fill="#406DDF"/>
</g>
<path d="M20.25 10C20.25 11.7949 18.7949 13.25 17 13.25C15.2051 13.25 13.75 11.7949 13.75 10C13.75 8.20507 15.2051 6.75 17 6.75C18.7949 6.75 20.25 8.20507 20.25 10Z" fill="white" stroke="white" stroke-width="1.5"/>
<path d="M23.25 21C23.25 22.0756 22.6409 23.1202 21.5138 23.9252C20.3882 24.7293 18.7947 25.25 17 25.25C15.2053 25.25 13.6118 24.7293 12.4862 23.9252C11.3591 23.1202 10.75 22.0756 10.75 21C10.75 19.9244 11.3591 18.8798 12.4862 18.0748C13.6118 17.2707 15.2053 16.75 17 16.75C18.7947 16.75 20.3882 17.2707 21.5138 18.0748C22.6409 18.8798 23.25 19.9244 23.25 21Z" fill="white" stroke="white" stroke-width="1.5"/>
<defs>
<filter id="filter0_d_1372_5841" x="5.96046e-08" y="0" width="34" height="35" filterUnits="userSpaceOnUse" color-interpolation-filters="sRGB">
<feFlood flood-opacity="0" result="BackgroundImageFix"/>
<feColorMatrix in="SourceAlpha" type="matrix" values="0 0 0 0 0 0 0 0 0 0 0 0 0 0 0 0 0 0 127 0" result="hardAlpha"/>
<feOffset dy="2"/>
<feGaussianBlur stdDeviation="0.5"/>
<feColorMatrix type="matrix" values="0 0 0 0 0.25098 0 0 0 0 0.282353 0 0 0 0 0.321569 0 0 0 0.05 0"/>
<feBlend mode="normal" in2="BackgroundImageFix" result="effect1_dropShadow_1372_5841"/>
<feBlend mode="normal" in="SourceGraphic" in2="effect1_dropShadow_1372_5841" result="shape"/>
</filter>
</defs>
</svg>
