<svg width="40" height="40" viewBox="0 0 33 33" fill="none" xmlns="http://www.w3.org/2000/svg">
<rect width="33" height="33" rx="16.5" fill="#1D9BF0"/>
<path d="M13.4806 25.2038C20.7984 25.2038 24.7996 19.14 24.7996 13.8848C24.7996 13.7115 24.7996 13.5383 24.7914 13.3733C25.5669 12.8123 26.2434 12.111 26.7796 11.3108C26.0701 11.6243 25.3029 11.8388 24.4944 11.9378C25.3194 11.4428 25.9464 10.6673 26.2434 9.73504C25.4761 10.1888 24.6264 10.5188 23.7189 10.7003C22.9929 9.92479 21.9616 9.44629 20.8149 9.44629C18.6204 9.44629 16.8384 11.2283 16.8384 13.4228C16.8384 13.7363 16.8714 14.0415 16.9456 14.3303C13.6374 14.1653 10.7086 12.5813 8.74514 10.1723C8.40689 10.758 8.20889 11.4428 8.20889 12.1688C8.20889 13.5465 8.91014 14.7675 9.98264 15.477C9.33089 15.4605 8.72039 15.279 8.18414 14.982C8.18414 14.9985 8.18414 15.015 8.18414 15.0315C8.18414 16.962 9.55364 18.5625 11.3769 18.9338C11.0469 19.0245 10.6921 19.074 10.3291 19.074C10.0734 19.074 9.82589 19.0493 9.57839 18.9998C10.0816 20.5838 11.5501 21.7305 13.2909 21.7635C11.9296 22.8278 10.2136 23.463 8.34914 23.463C8.02739 23.463 7.71389 23.4465 7.40039 23.4053C9.14114 24.5438 11.2366 25.2038 13.4806 25.2038Z" fill="white"/>
</svg>
