<svg width="60" height="60" viewBox="0 0 76 76" fill="none" xmlns="http://www.w3.org/2000/svg">
<circle cx="38" cy="38" r="35" stroke="#F25C54" stroke-width="6"/>
<path d="M41.5227 49.5297C41.5229 50.0261 41.4257 50.5175 41.2367 50.9761C41.0477 51.4347 40.7707 51.8514 40.4214 52.2024C40.0721 52.5533 39.6574 52.8318 39.201 53.0217C38.7446 53.2117 38.2554 53.3095 37.7614 53.3095C37.2674 53.3095 36.7782 53.2117 36.3218 53.0217C35.8654 52.8318 35.4507 52.5533 35.1014 52.2024C34.7521 51.8514 34.475 51.4347 34.2861 50.9761C34.0971 50.5175 33.9999 50.0261 34 49.5297C33.9999 49.0334 34.0971 48.5419 34.2861 48.0834C34.475 47.6248 34.7521 47.2081 35.1014 46.8571C35.4507 46.5061 35.8654 46.2277 36.3218 46.0377C36.7782 45.8478 37.2674 45.75 37.7614 45.75C38.2554 45.75 38.7446 45.8478 39.201 46.0377C39.6574 46.2277 40.0721 46.5061 40.4214 46.8571C40.7707 47.2081 41.0477 47.6248 41.2367 48.0834C41.4257 48.5419 41.5229 49.0334 41.5227 49.5297Z" fill="#F25C54"/>
<path d="M37.7618 23C35.7123 23 34.0625 24.6927 34.0625 26.7953L35.1563 40.0902C35.3652 41.8099 35.5436 42.7843 36.2501 43.2425C36.7114 43.4537 37.2224 43.5738 37.7618 43.5738C38.2987 43.5738 38.8075 43.455 39.267 43.2458C39.9775 42.7889 40.158 41.8138 40.3674 40.0902L41.4612 26.7953C41.4612 24.6927 39.8114 23 37.7618 23Z" fill="#F25C54"/>
</svg>
